<svg width="22" height="22" viewBox="0 0 22 22" fill="none" xmlns="http://www.w3.org/2000/svg">
<g clip-path="url(#clip0_261_106)">
<path d="M21.3319 8.63408C19.9102 6.31858 16.6762 2.43375 11.0002 2.43375C5.32417 2.43375 2.09017 6.31858 0.668419 8.63408C0.228903 9.34496 -0.00390625 10.1642 -0.00390625 11C-0.00390625 11.8358 0.228903 12.655 0.668419 13.3659C2.09017 15.6814 5.32417 19.5662 11.0002 19.5662C16.6762 19.5662 19.9102 15.6814 21.3319 13.3659C21.7714 12.655 22.0042 11.8358 22.0042 11C22.0042 10.1642 21.7714 9.34496 21.3319 8.63408ZM19.769 12.4062C18.548 14.3917 15.7843 17.7329 11.0002 17.7329C6.21609 17.7329 3.45234 14.3917 2.23134 12.4062C1.97021 11.9836 1.8319 11.4967 1.8319 11C1.8319 10.5033 1.97021 10.0164 2.23134 9.59383C3.45234 7.60833 6.21609 4.26708 11.0002 4.26708C15.7843 4.26708 18.548 7.60466 19.769 9.59383C20.0301 10.0164 20.1684 10.5033 20.1684 11C20.1684 11.4967 20.0301 11.9836 19.769 12.4062Z" fill="black"/>
<path d="M11.0003 6.41667C10.0938 6.41667 9.20769 6.68548 8.45396 7.1891C7.70024 7.69273 7.11278 8.40855 6.76588 9.24604C6.41898 10.0835 6.32821 11.0051 6.50506 11.8942C6.68191 12.7832 7.11843 13.5999 7.75942 14.2409C8.40041 14.8819 9.21708 15.3184 10.1062 15.4953C10.9952 15.6721 11.9168 15.5814 12.7543 15.2345C13.5918 14.8876 14.3076 14.3001 14.8112 13.5464C15.3149 12.7926 15.5837 11.9065 15.5837 11C15.5822 9.78488 15.0989 8.61993 14.2396 7.76071C13.3804 6.90148 12.2155 6.41813 11.0003 6.41667ZM11.0003 13.75C10.4564 13.75 9.92474 13.5887 9.47251 13.2865C9.02027 12.9844 8.6678 12.5549 8.45966 12.0524C8.25152 11.5499 8.19706 10.997 8.30317 10.4635C8.40928 9.93006 8.67119 9.44006 9.05578 9.05546C9.44038 8.67087 9.93038 8.40895 10.4638 8.30285C10.9973 8.19674 11.5502 8.2512 12.0527 8.45934C12.5552 8.66748 12.9847 9.01995 13.2869 9.47219C13.589 9.92442 13.7503 10.4561 13.7503 11C13.7503 11.7294 13.4606 12.4288 12.9449 12.9445C12.4291 13.4603 11.7297 13.75 11.0003 13.75Z" fill="black"/>
</g>
<defs>
<clipPath id="clip0_261_106">
<rect width="22" height="22" fill="white"/>
</clipPath>
</defs>
</svg>
